<?xml version="1.0" encoding="UTF-8"?>
<!DOCTYPE svg PUBLIC "-//W3C//DTD SVG 1.1//EN" "http://www.w3.org/Graphics/SVG/1.1/DTD/svg11.dtd">
<svg version="1.1" xmlns="http://www.w3.org/2000/svg" xmlns:xlink="http://www.w3.org/1999/xlink" x="0" y="0" width="92" height="92" viewBox="0, 0, 92, 92">
  <defs>
    <linearGradient id="Gradient_1" gradientUnits="userSpaceOnUse" x1="5" y1="46" x2="31" y2="46">
      <stop offset="0" stop-color="#454545"/>
      <stop offset="1" stop-color="#000000"/>
    </linearGradient>
    <linearGradient id="Gradient_2" gradientUnits="userSpaceOnUse" x1="61" y1="71" x2="61" y2="21">
      <stop offset="0" stop-color="#4E4E4E"/>
      <stop offset="1" stop-color="#000000"/>
    </linearGradient>
  </defs>
  <g id="Image">
    <path d="M21.563,1.5 L71.5,1.5 C82.546,1.5 91.5,10.454 91.5,21.5 L91.5,71.5 C91.5,82.546 82.546,91.5 71.5,91.5 L21.5,91.5 C10.454,91.5 1.5,82.546 1.5,71.5 L1.5,21.5 C1.5,10.454 10.454,1.5 21.5,1.5 z" fill="#FFFFFF"/>
    <path d="M12,12 L31,12 L31,80 L12,80 C12,80 5,70 5,46 C5,22 12,12 12,12 z" fill="url(#Gradient_1)"/>
    <path d="M21.5,21.5 L26.5,71.5" fill-opacity="0" stroke="#626262" stroke-width="2" stroke-linecap="square"/>
    <path d="M61,71 C47.193,71 36,59.807 36,46 C36,32.193 47.193,21 61,21 C74.807,21 86,32.193 86,46 C86,59.807 74.807,71 61,71 z" fill="url(#Gradient_2)"/>
    <path d="M61.5,47.5 C60.948,47.5 60.5,47.052 60.5,46.5 C60.5,45.948 60.948,45.5 61.5,45.5 C62.052,45.5 62.5,45.948 62.5,46.5 C62.5,47.052 62.052,47.5 61.5,47.5 z" fill-opacity="0" stroke="#FF9937" stroke-width="0.5"/>
    <path d="M13.5,26.5 L91.5,26.5" fill-opacity="0" stroke="#000000" stroke-width="2"/>
    <path d="M14.3,34.5 L91.5,34.5" fill-opacity="0" stroke="#000000" stroke-width="2"/>
    <path d="M15.1,42.5 L91.5,42.5" fill-opacity="0" stroke="#000000" stroke-width="2"/>
    <path d="M15.9,50.5 L91.5,50.5" fill-opacity="0" stroke="#000000" stroke-width="2"/>
    <path d="M16.7,58.5 L91.5,58.5" fill-opacity="0" stroke="#000000" stroke-width="2"/>
    <path d="M17.5,66.5 L91.5,66.5" fill-opacity="0" stroke="#000000" stroke-width="2"/>
    <path d="M57.167,50.136 L77.75,32.864" fill-opacity="0" stroke="#FD9027" stroke-width="3" stroke-linecap="round"/>
    <path d="M61.5,46.5 L56.5,31.5" fill-opacity="0" stroke="#FFFFFF" stroke-width="3" stroke-linecap="round"/>
    <path d="M61.5,46.5 L71.5,65.5" fill-opacity="0" stroke="#FFFFFF" stroke-width="3" stroke-linecap="round"/>
    <path d="M13,29 C11.343,29 10,27.657 10,26 C10,24.343 11.343,23 13,23 C14.657,23 16,24.343 16,26 C16,27.657 14.657,29 13,29 L13,29 L13,29 L13,29 L13,26 L13,29 z" fill="#FFFFFF"/>
    <path d="M13.8,37 C12.143,37 10.8,35.657 10.8,34 C10.8,32.343 12.143,31 13.8,31 C15.457,31 16.8,32.343 16.8,34 C16.8,35.657 15.457,37 13.8,37 L13.8,37 L13.8,37 L13.8,37 L13.8,34 L13.8,37 z" fill="#FFFFFF"/>
    <path d="M14.6,45 C12.943,45 11.6,43.657 11.6,42 C11.6,40.343 12.943,39 14.6,39 C16.257,39 17.6,40.343 17.6,42 C17.6,43.657 16.257,45 14.6,45 L14.6,45 L14.6,45 L14.6,45 L14.6,42 L14.6,45 z" fill="#FFFFFF"/>
    <path d="M15.4,53 C13.743,53 12.4,51.657 12.4,50 C12.4,48.343 13.743,47 15.4,47 C17.057,47 18.4,48.343 18.4,50 C18.4,51.657 17.057,53 15.4,53 L15.4,53 L15.4,53 L15.4,53 L15.4,50 L15.4,53 z" fill="#FFFFFF"/>
    <path d="M16.2,61 C14.543,61 13.2,59.657 13.2,58 C13.2,56.343 14.543,55 16.2,55 C17.857,55 19.2,56.343 19.2,58 C19.2,59.657 17.857,61 16.2,61 L16.2,61 L16.2,61 L16.2,61 L16.2,58 L16.2,61 z" fill="#FFFFFF"/>
    <path d="M17,69 C15.343,69 14,67.657 14,66 C14,64.343 15.343,63 17,63 C18.657,63 20,64.343 20,66 C20,67.657 18.657,69 17,69 L17,69 L17,69 L17,69 L17,66 L17,69 z" fill="#FFFFFF"/>
  </g>
</svg>
